<svg xmlns="http://www.w3.org/2000/svg" width="99.97" height="63.82" viewBox="0 0 99.97 63.82"><title>footer-logo</title><path d="M0,51.9l.36-2.45c.65-4.64,2.25-8.81,6-11.92a19.48,19.48,0,0,1,5.51-3,40.72,40.72,0,0,1,5.6-1.73c1.36-.31,2.75-.52,4.12-.77a29.26,29.26,0,0,0,7.11-2.36A29.68,29.68,0,0,0,34,26.06a47,47,0,0,1,9.07-5.59A41.08,41.08,0,0,1,50,17.86a34.07,34.07,0,0,1,6.58-1.14,43.48,43.48,0,0,1,5.1-.19,72.78,72.78,0,0,1,9.31.89A30.29,30.29,0,0,1,87,26c1.12,1.09,2.27,2.15,3.4,3.23a12.29,12.29,0,0,0,1,1c.24.18.23.37,0,.6-.47.46-.93.93-1.37,1.43-.26.29-.43.22-.67,0-1.43-1.38-2.87-2.73-4.29-4.1a27.81,27.81,0,0,0-10.57-6.76,33.43,33.43,0,0,0-6.7-1.48,60.41,60.41,0,0,0-8.81-.45,37.49,37.49,0,0,0-6,.66,37.93,37.93,0,0,0-11.66,4.4,54.69,54.69,0,0,0-7.58,5.33,23.78,23.78,0,0,1-6.45,3.56c-3.08,1.21-6.36,1.6-9.56,2.33-3.43.78-6.81,1.81-9.64,4a12.61,12.61,0,0,0-4,5.87A25.08,25.08,0,0,0,3,52.22a3.43,3.43,0,0,0,.17,1.42,1,1,0,0,0,1,.79l.18,0c.39,0,.84.36,1.14.12s.16-.75.2-1.14a13.27,13.27,0,0,1,2.11-6.11,11.46,11.46,0,0,1,7.56-5,13.08,13.08,0,0,1,7.38.5A11.66,11.66,0,0,1,29.31,49a13.66,13.66,0,0,1,1.29,5.45c0,.46.24.51.62.51H46.51q11.61,0,23.23,0c.47,0,.65-.08.68-.61a13.32,13.32,0,0,1,2.1-6.7,12.11,12.11,0,0,1,6-4.76,12.92,12.92,0,0,1,6.67-.66,11.7,11.7,0,0,1,9.09,6.75,12.44,12.44,0,0,1,1.21,4.46.76.76,0,0,0,0,.3c0,.13,0,.35.21.37a.4.4,0,0,0,.37-.27,5.61,5.61,0,0,0,.8-2,37.57,37.57,0,0,0,.23-4.86c0-3.95,0-7.9,0-11.86q-.12-10.41-.35-20.81A5.81,5.81,0,0,0,95,9.86a4.72,4.72,0,0,0-3.23-1.15c-1.07,0-2.13,0-3.19,0-.45,0-.6-.13-.58-.58s0-1.21,0-1.81c0-.27,0-.43.35-.41,1.86.1,3.73-.21,5.57.26a7,7,0,0,1,4.79,4.08,10.89,10.89,0,0,1,1,4.7c0,8.35.38,16.69.25,25,0,.12,0,.24,0,.36l0,7.88a20,20,0,0,1-.46,4.87,6,6,0,0,1-1.89,3.23A2.81,2.81,0,0,1,93,55c-.25-.9-.2-1.82-.43-2.71a9.18,9.18,0,0,0-4.45-6.09,9.91,9.91,0,0,0-10.19.18,9.17,9.17,0,0,0-4.41,6.4,11.42,11.42,0,0,0-.1,4.36c.1.56-.07.73-.67.73q-19.17,0-38.35,0c-2,0-4,0-6,0-.4,0-.52-.1-.49-.51a18.73,18.73,0,0,0-.39-4.78A9.13,9.13,0,0,0,19.3,45a9.54,9.54,0,0,0-7.93,2.48A9.79,9.79,0,0,0,8.46,54c-.09,1.18,0,2.37,0,3.55,0,.36,0,.47-.47.39-1.31-.27-2.64-.46-4-.64A4,4,0,0,1,.57,54.88C.3,54.26.27,53.6,0,53Z" transform="translate(-0.03)" fill="#717171"/><path d="M17.85,63.82c-.44-.29-1-.16-1.41-.22a6.89,6.89,0,0,1-2.91-1.12,9,9,0,0,1-4.24-9.63,8.48,8.48,0,0,1,6.16-6.79A8.87,8.87,0,0,1,26.27,51a9.17,9.17,0,0,1-2.79,10.88,8.57,8.57,0,0,1-5,1.83c-.08,0-.15,0-.16.12Zm.24-3.08a6.12,6.12,0,1,0-6.15-5.84A6.11,6.11,0,0,0,18.09,60.74Z" transform="translate(-0.03)" fill="#717171"/><path d="M74.44,0a1.26,1.26,0,0,1,.5,1.2q0,6.26,0,12.51c0,.72-.28,1.09-.81,1.08s-.86-.35-.87-1.06c0-4.21,0-8.42,0-12.63A1.66,1.66,0,0,1,73.72,0Z" transform="translate(-0.03)" fill="#717171"/><path d="M70.23,38a14,14,0,1,1-14-14.07A14,14,0,0,1,70.23,38Zm-8.66-.14h0c-1,0-2,0-3.07,0-.41,0-.47-.07-.31-.47q2-5.07,3.9-10.17c.12-.34.51-.83.25-1s-.56.36-.88.52c0,0-.06.06-.09.08l-6.88,5.51L48.05,37.5c-.11.08-.29.14-.21.31s.28.12.42.12H54c.46,0,.56.11.38.56q-2,5.22-4,10.46c-.09.22-.37.54-.16.7s.48-.19.68-.35q7-5.47,14-11c.12-.09.34-.15.25-.35s-.26-.14-.43-.14Z" transform="translate(-0.03)" fill="#8cc63f" opacity="0.6"/><path d="M75.87,7.32c0-2,0-4.08,0-6.12,0-.31.07-.48.38-.46A26,26,0,0,1,80.56,1a6,6,0,0,1,4.49,3.56c.14.33.29.59.69.65s.52.3.51.68c0,1.06,0,2.13,0,3.19,0,.41-.17.72-.62.71s-.44.22-.54.46A6.06,6.06,0,0,1,79.91,14a17.39,17.39,0,0,1-2,.07c-.14,0-.37.11-.42-.19,0-.12-.1-.11-.12,0,0,.29-.26.19-.42.2-1.06,0-1,0-1-1,0-1.9,0-3.81,0-5.71Zm2.47.23V4c0-.42,0-.84,0-1.26a.39.39,0,0,0-.41-.43.44.44,0,0,0-.47.38,2.42,2.42,0,0,0-.06.47c0,3,0,6.05,0,9.07,0,.38.13.65.53.64s.45-.3.44-.64C78.33,10.64,78.34,9.09,78.34,7.55Z" transform="translate(-0.03)" fill="#717171"/><path d="M69,10.79c1,0,1.92,0,2.89,0,.37,0,.48.12.47.48,0,1.42.19,1.18-1.14,1.19l-4.52,0a3.74,3.74,0,0,1-.89-.05.8.8,0,0,1-.71-.84A.79.79,0,0,1,66,10.8Z" transform="translate(-0.03)" fill="#717171"/><path d="M69,4.27H66a.79.79,0,0,1-.86-.8A.76.76,0,0,1,66,2.71l5.89,0c.33,0,.54.09.48.49a2,2,0,0,0,0,.54c0,.44-.1.58-.58.55-.94,0-1.88,0-2.83,0Z" transform="translate(-0.03)" fill="#717171"/><path d="M83.19,63.71c-5.44.21-9.39-5.19-8.87-10a9,9,0,0,1,17.92,1.31C92,60,87.94,64,83.19,63.71Zm.11-15.19a6.09,6.09,0,1,0-.12,12.18,6,6,0,0,0,6.22-6.07A6.13,6.13,0,0,0,83.3,48.52Z" transform="translate(-0.03)" fill="#717171"/></svg>