<svg xmlns="http://www.w3.org/2000/svg" width="374.03" height="100.11" viewBox="0 0 374.03 100.11"><title>grevo-logo-new</title><path d="M0,81.38c.19-1.28.39-2.56.57-3.84,1-7.28,3.53-13.83,9.35-18.7a30.79,30.79,0,0,1,8.64-4.68,63.24,63.24,0,0,1,8.79-2.7c2.13-.5,4.31-.82,6.46-1.23a45.37,45.37,0,0,0,11.15-3.7,45.6,45.6,0,0,0,8.33-5.69,73.52,73.52,0,0,1,14.23-8.77A65.91,65.91,0,0,1,78.36,28,53.67,53.67,0,0,1,88.69,26.2a68.94,68.94,0,0,1,8-.31,113.77,113.77,0,0,1,14.6,1.4,47.53,47.53,0,0,1,25.15,13.38c1.75,1.71,3.56,3.37,5.33,5.06a16.35,16.35,0,0,0,1.65,1.57c.37.27.36.58,0,.93-.74.72-1.47,1.47-2.15,2.24-.41.46-.67.36-1.06,0-2.23-2.16-4.5-4.28-6.73-6.44-4.81-4.65-10.15-8.46-16.58-10.6a52.19,52.19,0,0,0-10.51-2.32,95.3,95.3,0,0,0-13.82-.7,57.67,57.67,0,0,0-9.34,1,59.36,59.36,0,0,0-18.3,6.89A85.32,85.32,0,0,0,53.05,46.7a37.18,37.18,0,0,1-10.12,5.57c-4.83,1.91-10,2.52-15,3.66-5.38,1.23-10.68,2.85-15.13,6.34a19.81,19.81,0,0,0-6.25,9.21,39.37,39.37,0,0,0-2,10.4,5.36,5.36,0,0,0,.27,2.24,1.61,1.61,0,0,0,1.58,1.24l.28,0c.61,0,1.32.57,1.79.19s.25-1.18.32-1.8a20.82,20.82,0,0,1,3.31-9.58A18.05,18.05,0,0,1,24,66.39a20.65,20.65,0,0,1,11.57.8,18.26,18.26,0,0,1,10.36,9.57,21.44,21.44,0,0,1,2,8.55c0,.72.38.81,1,.81q12,0,24,0,18.23,0,36.45,0c.74,0,1-.13,1.07-1a20.86,20.86,0,0,1,3.29-10.52,19,19,0,0,1,9.48-7.45,20.22,20.22,0,0,1,10.45-1,18.34,18.34,0,0,1,14.26,10.59,19.2,19.2,0,0,1,1.9,7,1.77,1.77,0,0,0,.08.46c.09.21-.05.55.34.58s.46-.21.58-.42A8.87,8.87,0,0,0,152,81.15a60.42,60.42,0,0,0,.38-7.61c0-6.2.07-12.4,0-18.6q-.19-16.33-.56-32.66A9.12,9.12,0,0,0,149,15.44,7.5,7.5,0,0,0,144,13.62c-1.67,0-3.34,0-5,0-.71,0-.94-.21-.9-.91.05-.94,0-1.89,0-2.84,0-.41.07-.66.55-.64,2.91.15,5.84-.33,8.73.41a11.07,11.07,0,0,1,7.52,6.4,17.17,17.17,0,0,1,1.52,7.38c0,13.09.6,26.18.39,39.27a5.07,5.07,0,0,0,.05.56q0,6.2-.05,12.37a30.63,30.63,0,0,1-.73,7.63,9.29,9.29,0,0,1-3,5.08,4.41,4.41,0,0,1-7.32-2.16c-.39-1.4-.32-2.85-.68-4.25-1.07-4.12-3.22-7.48-7-9.55-5.33-2.92-10.74-2.7-16,.29a14.31,14.31,0,0,0-6.91,10,18,18,0,0,0-.16,6.83c.15.88-.1,1.14-1,1.14q-30.07,0-60.16,0c-3.12,0-6.24,0-9.35,0-.62,0-.82-.14-.77-.79a28.67,28.67,0,0,0-.61-7.5A14.33,14.33,0,0,0,30.2,70.47c-4.67-.46-8.93.56-12.44,3.9A15.34,15.34,0,0,0,13.2,84.71c-.15,1.84,0,3.71,0,5.57,0,.56,0,.73-.73.6-2.06-.41-4.15-.71-6.23-1A6.32,6.32,0,0,1,.83,86.06c-.43-1-.49-2-.86-3Z" transform="translate(0.03 0.03)" fill="#131419"/><path d="M27.93,100.08c-.68-.45-1.49-.25-2.22-.34A11,11,0,0,1,21.16,98,14,14,0,0,1,14.5,82.88a13.29,13.29,0,0,1,9.67-10.66,13.92,13.92,0,0,1,17,7.74A14.4,14.4,0,0,1,36.76,97a13.48,13.48,0,0,1-7.82,2.87c-.13,0-.24,0-.26.19Zm.37-4.83a9.61,9.61,0,1,0-9.64-9.17A9.59,9.59,0,0,0,28.3,95.25Z" transform="translate(0.03 0.03)" fill="#131419"/><path d="M116.71,0a2,2,0,0,1,.78,1.88c0,6.54,0,13.08,0,19.62,0,1.13-.43,1.71-1.27,1.69s-1.35-.54-1.35-1.66c0-6.6,0-13.21,0-19.81A2.6,2.6,0,0,1,115.57,0Z" transform="translate(0.03 0.03)" fill="#131419"/><path d="M110.1,59.52C110.38,71.4,100,82.11,86.88,81.38A22,22,0,1,1,110.1,59.52Zm-13.6-.23h0c-1.6,0-3.2,0-4.81,0-.64,0-.73-.12-.49-.74q3.1-8,6.12-15.94c.2-.54.8-1.32.41-1.61s-.9.56-1.4.82a1.49,1.49,0,0,0-.14.12L85.41,50.61q-5.07,4.08-10.11,8.18c-.17.13-.45.22-.33.49s.44.19.67.19c3,0,6,0,9,0,.71,0,.87.18.59.88Q82,68.53,78.88,76.75c-.13.35-.59.84-.25,1.09s.75-.29,1.07-.53l21.89-17.24c.18-.15.54-.24.4-.55s-.42-.23-.67-.23Z" transform="translate(0.03 0.03)" fill="#8cc63f"/><path d="M119,11.45c0-3.2,0-6.4,0-9.6,0-.48.11-.75.6-.72,2.25.12,4.52-.18,6.77.32a9.36,9.36,0,0,1,7,5.58c.22.52.45.93,1.08,1s.81.47.8,1.08c0,1.66,0,3.33,0,5,0,.65-.27,1.12-1,1.11-.54,0-.69.35-.85.72-1.49,3.65-4.35,5.39-8.12,5.94a28.4,28.4,0,0,1-3.19.1c-.23,0-.6.17-.67-.29,0-.19-.15-.18-.18,0-.07.46-.42.3-.66.31-1.66.07-1.64.06-1.62-1.62,0-3,0-6,0-8.95Zm3.87.36V6.16c0-.66,0-1.32,0-2a.62.62,0,0,0-.64-.68.71.71,0,0,0-.73.6,3.14,3.14,0,0,0-.1.74c0,4.75,0,9.49,0,14.23,0,.6.21,1,.83,1s.7-.47.69-1C122.81,16.65,122.82,14.23,122.82,11.81Z" transform="translate(0.03 0.03)" fill="#131419"/><path d="M108.21,16.9c1.51,0,3,0,4.53,0,.59,0,.76.19.75.76,0,2.22.29,1.85-1.8,1.86q-3.54,0-7.08,0a6,6,0,0,1-1.41-.07,1.25,1.25,0,0,1-1.1-1.33,1.22,1.22,0,0,1,1.29-1.23C105,16.88,106.6,16.9,108.21,16.9Z" transform="translate(0.03 0.03)" fill="#131419"/><path d="M108.14,6.66c-1.54,0-3.08,0-4.62,0a1.24,1.24,0,0,1-1.34-1.26,1.18,1.18,0,0,1,1.31-1.17l9.24,0c.52,0,.85.15.75.77a3.38,3.38,0,0,0,0,.84c.06.7-.16.92-.92.88-1.47-.09-2.95,0-4.43,0Z" transform="translate(0.03 0.03)" fill="#131419"/><path d="M130.43,99.9c-8.54.34-14.73-8.13-13.92-15.64a14.1,14.1,0,0,1,28.11,2.07C144.24,94,137.88,100.29,130.43,99.9Zm.18-23.83a9.56,9.56,0,1,0-.2,19.12,9.47,9.47,0,0,0,9.75-9.53A9.6,9.6,0,0,0,130.61,76.07Z" transform="translate(0.03 0.03)" fill="#131419"/><path d="M202.27,85.52a28.92,28.92,0,0,1-11.45-2.26,29.64,29.64,0,0,1-15.69-15.48,28.88,28.88,0,0,1,0-22.59A29.71,29.71,0,0,1,190.82,29.7a29.09,29.09,0,0,1,11.45-2.25,33.49,33.49,0,0,1,7.34.8,25.88,25.88,0,0,1,6.54,2.42A4.35,4.35,0,0,1,218,32.41a4.52,4.52,0,0,1,.61,2.21,5.23,5.23,0,0,1-1.3,3.47,4.1,4.1,0,0,1-3.3,1.54,5.64,5.64,0,0,1-1.33-.17,5.44,5.44,0,0,1-1.33-.48A22.06,22.06,0,0,0,207,37.61a22.87,22.87,0,0,0-4.76-.48,18.06,18.06,0,0,0-9.56,2.62,19.42,19.42,0,0,0-6.85,7,19.79,19.79,0,0,0,0,19.4,19.41,19.41,0,0,0,6.85,7.06,18.06,18.06,0,0,0,9.56,2.62,33,33,0,0,0,5.33-.48,20.3,20.3,0,0,0,4.75-1.29l-.72,2.42V62.69L213,63.9h-8.95a4.81,4.81,0,0,1-3.51-1.37,5,5,0,0,1,0-6.93,4.81,4.81,0,0,1,3.51-1.37h13.22a4.63,4.63,0,0,1,3.47,1.41,4.81,4.81,0,0,1,1.37,3.51v17.1a4.41,4.41,0,0,1-.76,2.66,6.78,6.78,0,0,1-1.74,1.69,34.87,34.87,0,0,1-8.1,3.59A31.62,31.62,0,0,1,202.27,85.52Z" transform="translate(0.03 0.03)" fill="#131419"/><path d="M229.78,84.71a4.63,4.63,0,0,1-3.47-1.41,4.81,4.81,0,0,1-1.37-3.51V46.48A4.81,4.81,0,0,1,226.31,43a5,5,0,0,1,6.94,0,4.85,4.85,0,0,1,1.37,3.51v7.58l-.57-5.4a12.66,12.66,0,0,1,2.3-3.43,13.56,13.56,0,0,1,3.19-2.5,14.32,14.32,0,0,1,3.79-1.49,17.35,17.35,0,0,1,4-.49,6.14,6.14,0,0,1,4.07,1.38,4.07,4.07,0,0,1,1.66,3.22,4.79,4.79,0,0,1-1.37,3.83,4.52,4.52,0,0,1-3,1.17,6.61,6.61,0,0,1-2.78-.56,6.82,6.82,0,0,0-2.86-.57,7,7,0,0,0-3,.69,8.13,8.13,0,0,0-2.74,2.14,11.29,11.29,0,0,0-2,3.59,14.93,14.93,0,0,0-.76,5V79.79a4.85,4.85,0,0,1-1.37,3.51A4.66,4.66,0,0,1,229.78,84.71Z" transform="translate(0.03 0.03)" fill="#131419"/><path d="M272.45,85.52a23.69,23.69,0,0,1-11.9-2.86,19.79,19.79,0,0,1-7.74-7.79,22.65,22.65,0,0,1-2.71-11.13,24.4,24.4,0,0,1,3-12.38,20.85,20.85,0,0,1,7.7-7.86,19.86,19.86,0,0,1,10.08-2.75,18.36,18.36,0,0,1,7.79,1.7,21.22,21.22,0,0,1,6.49,4.64,22.69,22.69,0,0,1,4.48,6.81,20.79,20.79,0,0,1,1.65,8.23,4.14,4.14,0,0,1-1.53,3.15,5.18,5.18,0,0,1-3.39,1.21H255.51l-2.42-8.07h29.6L280.92,60V57.85a7.37,7.37,0,0,0-1.66-4.19,10.62,10.62,0,0,0-3.71-2.94,10.52,10.52,0,0,0-4.72-1.09,15.22,15.22,0,0,0-4.51.64,8.65,8.65,0,0,0-3.63,2.18,10.43,10.43,0,0,0-2.42,4.11,20.21,20.21,0,0,0-.89,6.54,14.12,14.12,0,0,0,1.81,7.38,12.43,12.43,0,0,0,4.68,4.6A12.56,12.56,0,0,0,272,76.65a18.37,18.37,0,0,0,4.76-.49A11,11,0,0,0,279.59,75c.72-.46,1.38-.85,2-1.17a6.08,6.08,0,0,1,2.74-.73,4.06,4.06,0,0,1,4.12,4,5.08,5.08,0,0,1-2.26,4,18.83,18.83,0,0,1-5.89,3.1A23.41,23.41,0,0,1,272.45,85.52Z" transform="translate(0.03 0.03)" fill="#131419"/><path d="M295.19,41.56a5.47,5.47,0,0,1,2.83.77,4.69,4.69,0,0,1,1.93,2.3l11.86,27.1-1.77.81,12.09-27.83c.92-2.15,2.34-3.18,4.28-3.07a4.46,4.46,0,0,1,3.27,1.25A4.25,4.25,0,0,1,330.93,46a4,4,0,0,1-.21,1.21,12.21,12.21,0,0,1-.44,1.21L315.2,81.65a4.58,4.58,0,0,1-4.12,3.06,4.32,4.32,0,0,1-2.94-.56,5.11,5.11,0,0,1-2.14-2.5L291,48.42q-.17-.41-.36-1.05a5,5,0,0,1-.21-1.53,4.24,4.24,0,0,1,1.3-2.87A4.44,4.44,0,0,1,295.19,41.56Z" transform="translate(0.03 0.03)" fill="#131419"/><path d="M374,63.18a22.69,22.69,0,0,1-2.94,11.65,21.11,21.11,0,0,1-7.91,7.87,23.22,23.22,0,0,1-22.18,0,21.11,21.11,0,0,1-7.91-7.87,22.69,22.69,0,0,1-2.94-11.65,22.72,22.72,0,0,1,2.94-11.66,21.49,21.49,0,0,1,7.91-7.9,22.86,22.86,0,0,1,22.18,0,21.49,21.49,0,0,1,7.91,7.9A22.72,22.72,0,0,1,374,63.18Zm-9.68,0A14.71,14.71,0,0,0,362.67,56a12.32,12.32,0,0,0-4.44-4.72,12.11,12.11,0,0,0-12.34,0A12.25,12.25,0,0,0,341.45,56a14.71,14.71,0,0,0-1.65,7.14,14.53,14.53,0,0,0,1.65,7.06A12.32,12.32,0,0,0,345.89,75a12.11,12.11,0,0,0,12.34,0,12.39,12.39,0,0,0,4.44-4.72A14.53,14.53,0,0,0,364.32,63.18Z" transform="translate(0.03 0.03)" fill="#131419"/></svg>